<svg width="116" height="33" viewBox="0 0 116 33" fill="none" xmlns="http://www.w3.org/2000/svg">
<path d="M0.148727 10.4577L5.18782 19.7697C5.53707 20.4171 6.38523 20.915 7.08372 20.915H17.3615C18.06 20.915 18.3593 20.4171 18.0101 19.7697L12.9211 10.4079C12.5718 9.76054 11.7237 9.26257 11.0252 9.26257H0.747432H0.69754C0.0988353 9.31237 -0.200517 9.81034 0.148727 10.4577Z" fill="#220D4E"/>
<path d="M19.6569 21.2629L22.7003 26.7904C22.8999 27.1888 23.3988 27.4875 23.8478 27.4875L29.9347 27.3879C30.3338 27.3879 30.5334 27.0892 30.3338 26.6908L27.2904 21.1633C27.0908 20.765 26.5919 20.4662 26.1429 20.4662L20.0061 20.516C19.607 20.6156 19.4074 20.9144 19.6569 21.2629Z" fill="#220D4E"/>
<path d="M19.6575 0.348578L13.5706 7.96749C13.1715 8.46546 13.1216 9.41159 13.4709 10.059L18.5598 19.3212C18.9091 19.9685 19.5078 20.0681 19.9568 19.5203L26.0935 11.9014C26.4927 11.4035 26.5426 10.4573 26.1933 9.80997L21.0544 0.547765C20.8549 0.199187 20.5555 0 20.2562 0C20.0566 0 19.857 0.0995936 19.6575 0.348578Z" fill="#220D4E"/>
<path d="M18.2584 21.3628L14.6162 25.8943C14.3668 26.1931 14.3169 26.7408 14.5664 27.1392L17.6098 32.6666C17.8093 33.065 18.2085 33.1148 18.4579 32.7662L22.1 28.2347C22.3495 27.9359 22.3994 27.3882 22.1499 26.9898L19.1065 21.4624C19.0067 21.2632 18.8072 21.1138 18.6575 21.1636C18.4579 21.1636 18.3581 21.2134 18.2584 21.3628Z" fill="#220D4E"/>
<path d="M87.11 8.0675H85.0645V22.9567H87.11V8.0675Z" fill="#220D4E"/>
<path d="M48.4936 12.7979C45.55 12.7979 43.2051 15.0885 43.2051 17.9269V27.4381H45.2507V17.9269C45.2507 16.184 46.6975 14.7399 48.5435 14.7399C50.3396 14.7399 51.8364 16.184 51.8364 17.9269C51.8364 19.6698 50.3895 21.1139 48.5435 21.1139C47.5457 21.1139 46.5977 20.6657 45.999 19.9686V22.4584C46.7474 22.8568 47.5956 23.056 48.4936 23.056C51.4373 23.056 53.7822 20.7653 53.7822 17.9269C53.7822 15.0885 51.4373 12.7979 48.4936 12.7979Z" fill="#220D4E"/>
<path d="M60.019 12.7979C57.0754 12.7979 54.7305 15.0885 54.7305 17.9269V27.4381H56.776V17.9269C56.776 16.184 58.2229 14.7399 60.0689 14.7399C61.865 14.7399 63.3618 16.184 63.3618 17.9269C63.3618 19.6698 61.9149 21.1139 60.0689 21.1139C59.0711 21.1139 58.1231 20.6657 57.5244 19.9686V22.4584C58.2728 22.8568 59.121 23.056 60.019 23.056C62.9627 23.056 65.3076 20.7653 65.3076 17.9269C65.3076 15.0885 62.9128 12.7979 60.019 12.7979Z" fill="#220D4E"/>
<path d="M36.6694 8.0675C33.7258 8.0675 31.3809 10.3582 31.3809 13.1966V22.9567H33.4264V13.2464C33.4264 11.5035 34.8733 10.1092 36.6694 10.1092C38.4655 10.1092 39.9124 11.5035 39.9124 13.2464V14.3419H34.6737V16.3338H39.9124V23.0065H41.958V13.2464C41.958 10.3582 39.5632 8.0675 36.6694 8.0675Z" fill="#220D4E"/>
<path d="M78.2321 13.2459C78.2321 11.503 79.679 10.1087 81.4751 10.1087H84.0695V8.11682H81.4751C78.5315 8.11682 76.1865 10.4075 76.1865 13.2459V23.0061H78.2321V16.5325H83.8699V14.5406H78.2321V13.2459Z" fill="#220D4E"/>
<path d="M95.6418 12.8472V19.0718C95.592 20.3167 94.5442 21.3126 93.247 21.3126C91.9498 21.3126 90.9021 20.3167 90.8522 19.0718V12.8472H88.8066V19.0718C88.8066 21.0636 90.2535 22.7567 92.1993 23.2049V27.4376H94.2449V23.2049C96.1907 22.7567 97.6375 21.1134 97.6375 19.0718V12.8472H95.6418Z" fill="#220D4E"/>
<path d="M107.117 18.7234C106.918 19.5202 106.369 20.2173 105.571 20.6655C104.024 21.5618 102.028 21.0141 101.13 19.5202C100.232 18.0262 100.781 16.0842 102.328 15.1878C103.575 14.4907 105.121 14.6899 106.119 15.5862L101.529 18.1756L102.527 19.8687L108.913 16.2834C108.814 15.9846 108.664 15.6858 108.514 15.387C107.067 12.947 103.824 12.1004 101.28 13.4947C98.7353 14.9388 97.8871 18.076 99.334 20.5161C100.781 22.9561 104.024 23.8027 106.568 22.4084C108.015 21.6116 108.913 20.2173 109.163 18.7234H107.117Z" fill="#220D4E"/>
<path d="M115.6 12.7979C114.353 12.7979 113.255 13.1962 112.357 13.8934V12.8476H110.312V23.0062H112.357V17.9269C112.357 16.184 113.804 14.7897 115.6 14.7897H115.999V12.7979H115.6Z" fill="#220D4E"/>
<path d="M73.0397 18.2754L67.9507 15.9848C67.7012 15.8852 67.6015 15.5864 67.7012 15.3374C67.801 15.1382 67.9507 15.0386 68.1503 15.0386H73.9377V13.0468H68.1503C67.2023 13.0468 66.2544 13.5945 65.8552 14.4909C65.2565 15.7358 65.8053 17.1799 67.0526 17.7774L72.1416 20.0681C72.3911 20.1677 72.4909 20.4665 72.3911 20.7155C72.2913 20.9146 72.1416 21.0142 71.9421 21.0142H66.0049V23.0061H71.9421C72.89 23.0061 73.838 22.4583 74.2371 21.562C74.8857 20.3171 74.3369 18.873 73.0397 18.2754Z" fill="#220D4E"/>
</svg>
