<svg width="504" height="132" viewBox="0 0 504 132" fill="none" xmlns="http://www.w3.org/2000/svg">
<rect x="241" y="55" width="27" height="16" rx="2" fill="#220D4E"/>
<rect x="241" y="30" width="29" height="17" rx="2" fill="#220D4E"/>
<path d="M297.872 81.9236V29.5592H277.174V102H321.674V81.9236H297.872ZM383.185 29.5592H360.211L348.31 55.017L336.409 29.5592H313.435L337.962 74.4725V102H358.659V74.4725L383.185 29.5592ZM409.039 82.9584V74.8864H432.841V56.2588H409.039V48.3938H435.428V29.5592H388.342V102H435.946V82.9584H409.039ZM481.588 101.897H503.734L489.453 74.8864C496.283 70.747 500.629 63.7099 500.629 54.9135C500.629 39.287 488.832 29.4557 473.205 29.4557H444.229V101.897H464.926V79.1294H470.1L481.588 101.897ZM464.926 48.4973H472.791C477.138 48.4973 479.932 51.0845 479.932 55.3274C479.932 59.5704 477.138 62.0541 472.791 61.9506H464.926V48.4973Z" fill="#220D4E"/>
<path d="M270.05 31.3129V43.522C270.05 43.9447 269.882 44.3502 269.583 44.6492C269.284 44.9481 268.879 45.1161 268.456 45.1161H245.622V45.8893L244 41.9374H266.909V32.907H240.305L238.998 29.7283H268.456C268.665 29.727 268.872 29.7671 269.065 29.8462C269.259 29.9252 269.434 30.0418 269.583 30.189C269.731 30.3363 269.848 30.5114 269.928 30.7043C270.009 30.8972 270.05 31.104 270.05 31.3129Z" fill="#220D4E"/>
<path d="M268.567 32.5239V42.3239H243.704L239.695 32.5239H268.567Z" fill="#220D4E"/>
<path d="M265.974 57.5824V67.8441C265.975 68.053 265.935 68.2601 265.856 68.4534C265.777 68.6468 265.661 68.8226 265.513 68.9708C265.366 69.1189 265.191 69.2365 264.998 69.3167C264.805 69.397 264.598 69.4383 264.389 69.4383H252.935C253.189 69.4424 253.441 69.3836 253.667 69.267C253.894 69.1504 254.088 68.9797 254.233 68.7701C254.39 68.5518 254.489 68.2971 254.521 68.0299C254.553 67.7627 254.516 67.4918 254.414 67.2427L254.004 66.2881H262.824V59.1765H251.073L249.775 55.9978H264.389C264.809 56.0003 265.211 56.1681 265.507 56.4647C265.804 56.7613 265.972 57.1629 265.974 57.5824Z" fill="#220D4E"/>
<path d="M264.24 58.3059V67.132H253.249L249.633 58.3059H264.24Z" fill="#220D4E"/>
<path d="M254.852 67.1951C254.954 67.4441 254.884 67.6496 254.852 67.9168C254.82 68.1841 255.009 68.4204 254.852 68.6386C254.707 68.8483 254.609 69.1129 254.383 69.2294C254.156 69.346 253.158 69.415 252.903 69.4108H252.808C252.808 69.4108 251.853 69.4108 250.316 69.4108C249.515 69.4108 248.56 69.4108 247.453 69.4108L245.773 69.5063L245.469 70.0822C244.466 70.149 243.472 70.6799 242.365 70.804V68.2176C245.851 67.8301 249.361 67.7057 252.865 67.8453L252.254 66.2607H253.972L254.852 67.1951Z" fill="#220D4E"/>
<path d="M251.073 59.1777L253.975 66.2607H252.257L249.346 59.1777H251.073Z" fill="#220D4E"/>
<path d="M252.256 66.2607L252.905 67.8453C249.4 67.7057 245.89 67.8301 242.404 68.2176V67.8453C242.403 67.5912 242.464 67.3406 242.58 67.1147C242.696 66.8887 242.865 66.6941 243.072 66.5471C244.695 66.3944 246.213 66.3085 247.559 66.2607H252.256Z" fill="#220D4E"/>
<path d="M252.81 69.4397H247.493C248.562 69.4397 249.517 69.4397 250.357 69.4397C251.855 69.3919 252.81 69.4397 252.81 69.4397Z" fill="#220D4E"/>
<path d="M252.252 66.2607H247.594C248.615 66.2607 249.503 66.2034 250.315 66.2034H250.505L247.642 59.1777H249.36L252.252 66.2607Z" fill="#220D4E"/>
<path d="M249.776 55.9978L251.074 59.1765H249.346L248.048 55.9978H249.776Z" fill="#220D4E"/>
<path d="M247.626 59.1787L250.49 66.2044H250.299C249.516 66.2044 248.6 66.2044 247.578 66.2616H244.018C243.677 66.2526 243.343 66.353 243.063 66.548C238.951 66.9062 234.894 67.7325 230.969 69.0108C226.196 70.6527 222.607 73.0105 220.278 75.9792V47.3419L226.454 62.2906C226.583 62.5745 226.792 62.8153 227.054 62.9845C227.316 63.1537 227.621 63.2441 227.933 63.2452C228.143 63.2408 228.35 63.1987 228.544 63.1211C228.933 62.9546 229.24 62.6424 229.401 62.2514C229.562 61.8605 229.563 61.4221 229.403 61.0306L220.354 39.0275V32.9087H225.967L237.145 59.8946C237.272 60.1785 237.478 60.4196 237.739 60.589C238 60.7583 238.304 60.8487 238.615 60.8492C238.823 60.8482 239.028 60.8026 239.216 60.7155C239.411 60.6379 239.588 60.5225 239.737 60.3762C239.886 60.2298 240.005 60.0553 240.087 59.8627C240.169 59.6702 240.211 59.4633 240.213 59.2542C240.214 59.045 240.174 58.8377 240.095 58.6441L242.5 57.8709C242.575 58.2305 242.772 58.5532 243.057 58.7845C243.342 59.0158 243.698 59.1416 244.066 59.1405L247.626 59.1787Z" fill="white"/>
<path d="M245.624 45.8889L249.776 55.9979H248.048L245.624 50.0986V45.8889Z" fill="#220D4E"/>
<path d="M248.045 55.9978L249.344 59.1765H247.625L246.318 55.9978H248.045Z" fill="#220D4E"/>
<path d="M245.624 50.0994L248.048 55.9987H246.321L245.624 54.2995V50.0994Z" fill="#220D4E"/>
<path d="M246.317 55.9982L247.625 59.1769H244.036C243.668 59.178 243.312 59.0523 243.027 58.821C242.741 58.5896 242.545 58.2669 242.47 57.9074C242.46 57.7994 242.46 57.6908 242.47 57.5828V46.5383L245.649 54.299V55.9982H246.317Z" fill="white"/>
<path d="M244.036 66.2608H247.596C246.25 66.2608 244.732 66.3944 243.11 66.5472C243.381 66.3579 243.705 66.2578 244.036 66.2608Z" fill="white"/>
<path d="M245.624 69.4387H247.529C246.939 69.4387 246.31 69.4959 245.624 69.534V69.4387Z" fill="#220D4E"/>
<path d="M245.624 54.2991L246.321 55.9982H245.624V54.2991Z" fill="white"/>
<path d="M245.62 69.5347V100.406C245.621 100.615 245.581 100.822 245.502 101.015C245.423 101.208 245.306 101.384 245.159 101.532C245.012 101.681 244.837 101.798 244.644 101.878C244.451 101.959 244.244 102 244.035 102H243.539C235.463 102 228.695 100.291 223.951 97.0551C219.56 94.0578 217.135 89.934 217.135 85.457C217.135 85.8798 217.303 86.2853 217.602 86.5843C217.901 86.8832 218.307 87.0512 218.729 87.0512C219.152 87.0512 219.558 86.8832 219.857 86.5843C220.156 86.2853 220.324 85.8798 220.324 85.457C220.324 91.7477 227.244 98.5061 242.441 98.8211V69.821C243.548 69.6969 244.618 69.6015 245.62 69.5347Z" fill="#220D4E"/>
<path d="M245.621 50.0999V54.3L242.442 46.5393V43.5229C242.438 43.2664 242.501 43.0133 242.623 42.7878L245.621 50.0999Z" fill="#220D4E"/>
<path d="M245.619 45.8909V50.1006L242.622 42.7885C242.756 42.5386 242.954 42.3284 243.195 42.1792C243.436 42.0301 243.713 41.9472 243.996 41.939L245.619 45.8909Z" fill="#220D4E"/>
<path d="M240.305 32.9087L243.999 41.939C243.716 41.9472 243.439 42.0301 243.198 42.1793C242.957 42.3284 242.759 42.5386 242.625 42.7886L238.577 32.9087H240.305Z" fill="#220D4E"/>
<path d="M238.577 32.9087L242.624 42.7886C242.502 43.014 242.439 43.2671 242.443 43.5236V46.5401L236.849 32.9087H238.577Z" fill="#220D4E"/>
<path d="M242.443 57.5845C242.433 57.6925 242.433 57.8011 242.443 57.9091L240.038 58.6823L229.365 32.9087H236.821L242.415 46.5401L242.443 57.5845Z" fill="white"/>
<path d="M243.112 66.5474C242.904 66.6943 242.735 66.889 242.619 67.1149C242.503 67.3409 242.443 67.5915 242.443 67.8456V68.2179C234.473 69.1247 224.173 71.6353 220.354 78.8423V75.9786C222.684 73.0099 226.273 70.652 231.046 69.0102C234.961 67.734 239.009 66.9077 243.112 66.5474Z" fill="#220D4E"/>
<path d="M242.442 69.8215V98.8025C227.245 98.5066 220.325 91.7482 220.325 85.4384C220.325 79.1287 224.277 74.6994 232.056 71.9884C235.429 70.8906 238.912 70.164 242.442 69.8215Z" fill="#220D4E"/>
<path d="M242.443 68.218V69.8217C238.913 70.1642 235.43 70.8908 232.058 71.9886C224.278 74.6996 220.354 79.2243 220.354 85.4577V78.8425C224.173 71.6354 234.473 69.1249 242.443 68.218Z" fill="#220D4E"/>
<path d="M238.995 29.7283L240.302 32.907H238.575L237.267 29.7283H238.995Z" fill="#220D4E"/>
<path d="M240.066 58.6823C240.145 58.8759 240.185 59.0832 240.184 59.2924C240.183 59.5015 240.14 59.7084 240.058 59.9009C239.977 60.0935 239.858 60.268 239.708 60.4144C239.559 60.5607 239.382 60.6761 239.188 60.7537C238.999 60.8408 238.794 60.8864 238.586 60.8874C238.275 60.8869 237.971 60.7965 237.71 60.6271C237.45 60.4578 237.243 60.2167 237.116 59.9328L225.938 32.9087H229.394L240.066 58.6823Z" fill="#220D4E"/>
<path d="M233.773 17.0047L238.994 29.7292H237.266L232.293 17.5774C222.747 19.2766 219.884 25.93 219.072 29.691H218.729C218.421 29.6898 218.12 29.7798 217.863 29.9497C217.606 30.1196 217.406 30.3618 217.287 30.6456C217.567 28.737 218.147 26.8846 219.005 25.1568C220.714 21.7489 224.351 17.3865 232.016 16.0215C232.377 15.962 232.747 16.0269 233.067 16.2056C233.386 16.3842 233.635 16.666 233.773 17.0047Z" fill="#220D4E"/>
<path d="M237.268 29.7283L238.575 32.907H236.848L235.549 29.7283H237.268Z" fill="#220D4E"/>
<mask id="path-35-inside-1" fill="white">
<path d="M232.289 17.5764L237.263 29.69H235.544L231.316 19.4856C223.879 21.2897 221.474 26.5399 220.691 29.7759H219.068C219.899 25.9672 222.715 19.3137 232.289 17.5764Z"/>
</mask>
<path d="M232.289 17.5764L237.263 29.69H235.544L231.316 19.4856C223.879 21.2897 221.474 26.5399 220.691 29.7759H219.068C219.899 25.9672 222.715 19.3137 232.289 17.5764Z" fill="#220D4E"/>
<path d="M232.289 17.5764L242.723 13.2926L239.257 4.84861L230.275 6.47831L232.289 17.5764ZM237.263 29.69V40.9693H254.086L247.697 25.4062L237.263 29.69ZM235.544 29.69L225.124 34.0082L228.009 40.9693H235.544V29.69ZM231.316 19.4856L241.736 15.1674L238.039 6.24773L228.656 8.52423L231.316 19.4856ZM220.691 29.7759V41.0553H229.567L231.654 32.4278L220.691 29.7759ZM219.068 29.7759L208.048 27.373L205.065 41.0553H219.068V29.7759ZM221.855 21.8603L226.828 33.9739L247.697 25.4062L242.723 13.2926L221.855 21.8603ZM237.263 18.4107H235.544V40.9693H237.263V18.4107ZM245.964 25.3719L241.736 15.1674L220.896 23.8037L225.124 34.0082L245.964 25.3719ZM228.656 8.52423C215.729 11.6607 211.117 21.3815 209.728 27.1241L231.654 32.4278C231.768 31.9558 231.951 31.5797 232.152 31.3407C232.238 31.2382 232.362 31.1164 232.576 30.9834C232.79 30.8503 233.216 30.6311 233.975 30.4469L228.656 8.52423ZM220.691 18.4966H219.068V41.0553H220.691V18.4966ZM230.089 32.1789C230.25 31.4405 230.551 30.7248 230.991 30.2076C231.191 29.9734 231.466 29.7196 231.897 29.4733C232.331 29.2254 233.077 28.897 234.303 28.6745L230.275 6.47831C222.981 7.80201 217.539 11.2056 213.808 15.5912C210.239 19.7872 208.717 24.3026 208.048 27.373L230.089 32.1789Z" fill="#220D4E" mask="url(#path-35-inside-1)"/>
<path d="M235.55 29.7283L236.849 32.907H229.393L228.133 29.8524L228.066 29.7283H235.55Z" fill="white"/>
<path d="M231.323 19.4878L235.552 29.7781H228.068C227.937 29.5102 227.733 29.2844 227.48 29.1264C227.227 28.9685 226.934 28.8848 226.636 28.8848C226.338 28.8848 226.045 28.9685 225.792 29.1264C225.539 29.2844 225.335 29.5102 225.204 29.7781H220.66C221.481 26.4944 223.887 21.2442 231.323 19.4878Z" fill="white"/>
<path d="M229.452 61.0583C229.611 61.4498 229.61 61.8882 229.449 62.2791C229.289 62.6701 228.981 62.9823 228.593 63.1488C228.398 63.2265 228.191 63.2685 227.982 63.2729C227.669 63.2719 227.364 63.1814 227.102 63.0122C226.84 62.843 226.632 62.6022 226.502 62.3183L220.354 47.341V39.0266L229.452 61.0583Z" fill="#220D4E"/>
<path d="M228.134 29.8524L229.394 32.907H225.939L225.185 31.0742C225.096 30.859 225.056 30.6273 225.066 30.395C225.076 30.1627 225.136 29.9352 225.242 29.7283H228.106L228.134 29.8524Z" fill="#220D4E"/>
<path d="M228.063 29.7286H225.2C225.331 29.4606 225.535 29.2348 225.788 29.0769C226.041 28.9189 226.333 28.8352 226.632 28.8352C226.93 28.8352 227.222 28.9189 227.475 29.0769C227.729 29.2348 227.932 29.4606 228.063 29.7286Z" fill="#220D4E"/>
<path d="M225.185 31.0742L225.939 32.907H220.354V32.3629C220.382 31.4738 220.507 30.5903 220.727 29.7283H225.271C225.16 29.9331 225.095 30.1595 225.08 30.3918C225.065 30.6242 225.101 30.857 225.185 31.0742Z" fill="white"/>
<path d="M219.077 29.7283H220.699C220.48 30.5903 220.355 31.4738 220.327 32.3629V39.045L220.203 38.7395C220.077 38.4549 219.871 38.2131 219.61 38.0436C219.349 37.8741 219.044 37.7842 218.733 37.7849V32.3534C218.761 31.4692 218.876 30.5899 219.077 29.7283Z" fill="#220D4E"/>
<path d="M220.352 78.8422V85.4575C220.352 85.8803 220.184 86.2857 219.885 86.5847C219.586 86.8837 219.18 87.0516 218.758 87.0516C218.335 87.0516 217.929 86.8837 217.63 86.5847C217.332 86.2857 217.164 85.8803 217.164 85.4575V39.3323C217.168 39.5417 217.21 39.7486 217.288 39.9432L218.758 43.4942V85.4957C218.721 83.1791 219.269 80.8907 220.352 78.8422Z" fill="#220D4E"/>
<path d="M220.354 75.9785V78.8423C219.278 80.8793 218.73 83.1538 218.76 85.4575V43.4561L220.354 47.2744V75.9785Z" fill="#220D4E"/>
<path d="M220.353 39.0258V47.3402L218.759 43.5219V37.7944C219.07 37.7937 219.375 37.8836 219.636 38.0531C219.897 38.2226 220.103 38.4644 220.229 38.749L220.353 39.0258Z" fill="#220D4E"/>
<path d="M218.729 29.7283H219.073C218.872 30.5899 218.757 31.4692 218.729 32.3534V37.7372C218.52 37.7405 218.312 37.7826 218.118 37.8613C217.834 37.9873 217.592 38.1933 217.422 38.4543C217.253 38.7154 217.163 39.0201 217.164 39.3313V32.3534C217.174 31.7872 217.225 31.2226 217.316 30.6638C217.436 30.388 217.633 30.1529 217.884 29.9868C218.135 29.8208 218.428 29.731 218.729 29.7283Z" fill="#220D4E"/>
<path d="M218.729 37.7387V43.4661L217.259 39.9151C217.182 39.7205 217.14 39.5136 217.135 39.3042C217.135 38.9929 217.224 38.6882 217.394 38.4272C217.563 38.1662 217.805 37.9601 218.09 37.8341C218.295 37.7616 218.512 37.7292 218.729 37.7387Z" fill="#220D4E"/>
<path d="M217.135 31.3139C217.137 31.0889 217.189 30.8671 217.288 30.6648C217.197 31.2236 217.145 31.7883 217.135 32.3544V31.3139Z" fill="#220D4E"/>
<path d="M55.8829 29.5592H1.03487V49.6357H18.1102V102H38.8076V49.6357H55.8829V29.5592ZM100.362 29.5592V55.2239H82.7693V29.5592H62.0719V102H82.7693V75.3004H100.362V102H121.059V29.5592H100.362ZM152.097 82.9584V74.8864H175.899V56.2588H152.097V48.3938H178.486V29.5592H131.4V102H179.004V82.9584H152.097Z" fill="#220D4E"/>
</svg>
